<?xml version="1.0" encoding="UTF-8"?>
<svg xmlns="http://www.w3.org/2000/svg" viewBox="0 0 128 128">
  <path fill="#019BC6" d="M124.8 52.1c-4.3-2.5-10-2.8-14.8-1.4-.6-5.2-4-9.7-8-12.9l-1.6-1.3-1.4 1.6c-2.7 3.1-3.5 8.3-3.1 12.3.3 2.9 1.2 5.9 3 8.3-1.4.8-2.9 1.9-4.3 2.4-2.8 1-5.9 2-8.9 2H79V64H66.9l-.1 1.1v.8c0 1.1.6 2.2 1.8 2.9 2.9 1.6 5.1 2.9 7.2 5.5.8 1 1.7 1.9 2.7 2.7 4.3 3.7 10.3 5.4 16.2 5.4 12.8 0 23.1-5.7 27.8-17.6 3.3.1 6.6 0 9.3-.8 3.6-1.1 6-3.1 7.3-5.8.7-1.3 1-3.2.1-4.8-.7-1.2-1.8-2.1-3.4-2.3zM54.3 59.9h-13v-13h13v13zm0-18.3h-13v-13h13v13zm0-18.3h-13V10h13v13.3zm15.7 36.6h-13v-13h13v13zm0-18.3h-13v-13h13v13zm0-18.3h-13V10h13v13.3zm15.7 36.6h-13v-13h13v13zm0-18.3h-13v-13h13v13zm0-18.3h-13V10h13v13.3zm15.8 36.6h-13v-13h13v13zm0-18.3h-13v-13h13v13zm0-18.3h-13V10h13v13.3z"/>
</svg> 