<?xml version="1.0" encoding="UTF-8"?>
<svg xmlns="http://www.w3.org/2000/svg" viewBox="0 0 128 128">
  <path fill="#6181B6" d="M15 91h13.3v-6.3H15V91zm14.9-6.3v6.3h12.6c4.2 0 7-1.4 8.4-4.2 1.4-2.8 1.4-5.6 0-8.4-1.4-2.8-4.2-4.2-8.4-4.2H29.9v6.3h10.5c1.4 0 2.1.7 2.1 2.1 0 1.4-.7 2.1-2.1 2.1H29.9zm26.6 0v6.3h12.6c4.2 0 7-1.4 8.4-4.2 1.4-2.8 1.4-5.6 0-8.4-1.4-2.8-4.2-4.2-8.4-4.2H56.5v6.3H67c1.4 0 2.1.7 2.1 2.1 0 1.4-.7 2.1-2.1 2.1H56.5zm26.6 0v6.3h13.3v-6.3H83.1z"/>
  <path fill="#6181B6" d="M15 37h98v54H15z"/>
  <path fill="#ffffff" d="M30.3 58.5h13.3v-6.3H30.3v6.3zm14.9-6.3v6.3h12.6c4.2 0 7-1.4 8.4-4.2 1.4-2.8 1.4-5.6 0-8.4-1.4-2.8-4.2-4.2-8.4-4.2H45.2v6.3h10.5c1.4 0 2.1.7 2.1 2.1s-.7 2.1-2.1 2.1H45.2zm26.6 0v6.3h12.6c4.2 0 7-1.4 8.4-4.2 1.4-2.8 1.4-5.6 0-8.4-1.4-2.8-4.2-4.2-8.4-4.2H71.8v6.3h10.5c1.4 0 2.1.7 2.1 2.1s-.7 2.1-2.1 2.1H71.8zm26.6 0v6.3h13.3v-6.3H98.4z"/>
</svg> 