<?xml version="1.0" standalone="no"?>
<svg width="512" height="512" viewBox="0 0 512 512" xmlns="http://www.w3.org/2000/svg">
  <rect width="512" height="512" rx="128" fill="#7C3AED"/>
  <path d="M341.648 183.552C341.648 145.152 309.248 115 264.048 115H170.448C167.248 115 165.648 116.6 165.648 119.8V392.2C165.648 395.4 167.248 397 170.448 397H264.048C316.448 397 351.248 366.2 351.248 324.2C351.248 295.4 335.648 272.6 309.248 262.2C329.248 251.8 341.648 222.752 341.648 183.552ZM264.048 252.6H208.048V158.2H264.048C290.448 158.2 299.248 169.4 299.248 183.552C299.248 197.704 290.448 252.6 264.048 252.6ZM264.048 353.8H208.048V295.8H264.048C287.248 295.8 308.848 303.8 308.848 324.2C308.848 344.6 287.248 353.8 264.048 353.8Z" 
    fill="white"/>
</svg> 